<mxfile host="Electron" modified="2025-09-18T07:47:53.847Z" agent="Mozilla/5.0 (Windows NT 10.0; Win64; x64) AppleWebKit/537.36 (KHTML, like Gecko) draw.io/23.1.5 Chrome/120.0.6099.109 Electron/28.1.0 Safari/537.36" etag="zHUaboMri4FwNAOtZ6iW" version="23.1.5" type="device">
  <diagram name="Page-1" id="aXEnYEKyhN8AeZee-PJk">
    <mxGraphModel dx="1235" dy="731" grid="1" gridSize="10" guides="1" tooltips="1" connect="1" arrows="1" fold="1" page="1" pageScale="1" pageWidth="850" pageHeight="1100" math="0" shadow="0">
      <root>
        <mxCell id="0" />
        <mxCell id="1" parent="0" />
        <mxCell id="isTigd_J0Dsz2-tIGpBy-66" value="" style="swimlane;childLayout=stackLayout;resizeParent=1;resizeParentMax=0;startSize=20;html=1;" parent="1" vertex="1">
          <mxGeometry x="1540.0000000000005" y="230" width="910" height="830" as="geometry" />
        </mxCell>
        <mxCell id="isTigd_J0Dsz2-tIGpBy-67" value="Quản trị viên" style="swimlane;startSize=20;html=1;" parent="isTigd_J0Dsz2-tIGpBy-66" vertex="1">
          <mxGeometry y="20" width="910" height="810" as="geometry" />
        </mxCell>
        <mxCell id="isTigd_J0Dsz2-tIGpBy-71" value="" style="ellipse;html=1;shape=startState;fillColor=#000000;strokeColor=#ff0000;" parent="isTigd_J0Dsz2-tIGpBy-67" vertex="1">
          <mxGeometry x="439.99999999999955" y="40" width="30" height="30" as="geometry" />
        </mxCell>
        <mxCell id="isTigd_J0Dsz2-tIGpBy-72" value="" style="edgeStyle=orthogonalEdgeStyle;html=1;verticalAlign=bottom;endArrow=open;endSize=8;strokeColor=#ff0000;rounded=0;" parent="isTigd_J0Dsz2-tIGpBy-67" source="isTigd_J0Dsz2-tIGpBy-71" target="isTigd_J0Dsz2-tIGpBy-77" edge="1">
          <mxGeometry relative="1" as="geometry">
            <mxPoint x="454.99999999999955" y="170" as="targetPoint" />
          </mxGeometry>
        </mxCell>
        <mxCell id="isTigd_J0Dsz2-tIGpBy-79" value="" style="edgeStyle=orthogonalEdgeStyle;rounded=0;orthogonalLoop=1;jettySize=auto;html=1;" parent="isTigd_J0Dsz2-tIGpBy-67" source="isTigd_J0Dsz2-tIGpBy-77" target="isTigd_J0Dsz2-tIGpBy-78" edge="1">
          <mxGeometry relative="1" as="geometry" />
        </mxCell>
        <mxCell id="isTigd_J0Dsz2-tIGpBy-77" value="Đăng nhập" style="rounded=1;whiteSpace=wrap;html=1;arcSize=40;fontColor=#000000;fillColor=#ffffc0;strokeColor=#ff0000;" parent="isTigd_J0Dsz2-tIGpBy-67" vertex="1">
          <mxGeometry x="394.99999999999955" y="100" width="120" height="40" as="geometry" />
        </mxCell>
        <mxCell id="isTigd_J0Dsz2-tIGpBy-82" value="" style="edgeStyle=orthogonalEdgeStyle;rounded=0;orthogonalLoop=1;jettySize=auto;html=1;" parent="isTigd_J0Dsz2-tIGpBy-67" source="isTigd_J0Dsz2-tIGpBy-78" target="isTigd_J0Dsz2-tIGpBy-81" edge="1">
          <mxGeometry relative="1" as="geometry" />
        </mxCell>
        <mxCell id="isTigd_J0Dsz2-tIGpBy-78" value="Chuyển đến trang quản trị" style="whiteSpace=wrap;html=1;fillColor=#ffffc0;strokeColor=#ff0000;fontColor=#000000;rounded=1;arcSize=40;" parent="isTigd_J0Dsz2-tIGpBy-67" vertex="1">
          <mxGeometry x="394.99999999999955" y="190" width="120" height="60" as="geometry" />
        </mxCell>
        <mxCell id="isTigd_J0Dsz2-tIGpBy-85" style="edgeStyle=orthogonalEdgeStyle;rounded=0;orthogonalLoop=1;jettySize=auto;html=1;exitX=0.349;exitY=0.394;exitDx=0;exitDy=0;exitPerimeter=0;" parent="isTigd_J0Dsz2-tIGpBy-67" source="isTigd_J0Dsz2-tIGpBy-81" target="isTigd_J0Dsz2-tIGpBy-87" edge="1">
          <mxGeometry relative="1" as="geometry" />
        </mxCell>
        <mxCell id="isTigd_J0Dsz2-tIGpBy-95" style="edgeStyle=orthogonalEdgeStyle;rounded=0;orthogonalLoop=1;jettySize=auto;html=1;exitX=0.75;exitY=0.5;exitDx=0;exitDy=0;exitPerimeter=0;" parent="isTigd_J0Dsz2-tIGpBy-67" source="isTigd_J0Dsz2-tIGpBy-81" target="isTigd_J0Dsz2-tIGpBy-93" edge="1">
          <mxGeometry relative="1" as="geometry" />
        </mxCell>
        <mxCell id="uV3kU8W3gXamrPDPcUg_-6" style="edgeStyle=orthogonalEdgeStyle;rounded=0;orthogonalLoop=1;jettySize=auto;html=1;exitX=0.167;exitY=0.865;exitDx=0;exitDy=0;exitPerimeter=0;" edge="1" parent="isTigd_J0Dsz2-tIGpBy-67" source="isTigd_J0Dsz2-tIGpBy-81" target="uV3kU8W3gXamrPDPcUg_-5">
          <mxGeometry relative="1" as="geometry" />
        </mxCell>
        <mxCell id="isTigd_J0Dsz2-tIGpBy-81" value="" style="shape=line;html=1;strokeWidth=6;strokeColor=#ff0000;" parent="isTigd_J0Dsz2-tIGpBy-67" vertex="1">
          <mxGeometry x="260" y="300" width="300" height="10" as="geometry" />
        </mxCell>
        <mxCell id="isTigd_J0Dsz2-tIGpBy-92" value="" style="edgeStyle=orthogonalEdgeStyle;rounded=0;orthogonalLoop=1;jettySize=auto;html=1;" parent="isTigd_J0Dsz2-tIGpBy-67" source="isTigd_J0Dsz2-tIGpBy-83" target="isTigd_J0Dsz2-tIGpBy-86" edge="1">
          <mxGeometry relative="1" as="geometry" />
        </mxCell>
        <mxCell id="isTigd_J0Dsz2-tIGpBy-83" value="Quản lý sản phẩm" style="rounded=1;whiteSpace=wrap;html=1;arcSize=40;fontColor=#000000;fillColor=#ffffc0;strokeColor=#ff0000;" parent="isTigd_J0Dsz2-tIGpBy-67" vertex="1">
          <mxGeometry x="339.99999999999955" y="540" width="120" height="40" as="geometry" />
        </mxCell>
        <mxCell id="isTigd_J0Dsz2-tIGpBy-86" value="" style="ellipse;html=1;shape=endState;fillColor=#000000;strokeColor=#ff0000;" parent="isTigd_J0Dsz2-tIGpBy-67" vertex="1">
          <mxGeometry x="384.99999999999955" y="640" width="30" height="30" as="geometry" />
        </mxCell>
        <mxCell id="isTigd_J0Dsz2-tIGpBy-90" value="" style="edgeStyle=orthogonalEdgeStyle;rounded=0;orthogonalLoop=1;jettySize=auto;html=1;" parent="isTigd_J0Dsz2-tIGpBy-67" source="isTigd_J0Dsz2-tIGpBy-87" target="isTigd_J0Dsz2-tIGpBy-89" edge="1">
          <mxGeometry relative="1" as="geometry" />
        </mxCell>
        <mxCell id="isTigd_J0Dsz2-tIGpBy-87" value="Duyệt danh sách sản phẩm" style="rounded=1;whiteSpace=wrap;html=1;arcSize=40;fontColor=#000000;fillColor=#ffffc0;strokeColor=#ff0000;" parent="isTigd_J0Dsz2-tIGpBy-67" vertex="1">
          <mxGeometry x="339.99999999999955" y="360" width="120" height="40" as="geometry" />
        </mxCell>
        <mxCell id="isTigd_J0Dsz2-tIGpBy-91" value="" style="edgeStyle=orthogonalEdgeStyle;rounded=0;orthogonalLoop=1;jettySize=auto;html=1;" parent="isTigd_J0Dsz2-tIGpBy-67" source="isTigd_J0Dsz2-tIGpBy-89" target="isTigd_J0Dsz2-tIGpBy-83" edge="1">
          <mxGeometry relative="1" as="geometry" />
        </mxCell>
        <mxCell id="isTigd_J0Dsz2-tIGpBy-89" value="Chọn sản phẩm để quản lý" style="whiteSpace=wrap;html=1;fillColor=#ffffc0;strokeColor=#ff0000;fontColor=#000000;rounded=1;arcSize=40;" parent="isTigd_J0Dsz2-tIGpBy-67" vertex="1">
          <mxGeometry x="339.99999999999955" y="440" width="120" height="60" as="geometry" />
        </mxCell>
        <mxCell id="isTigd_J0Dsz2-tIGpBy-97" value="" style="edgeStyle=orthogonalEdgeStyle;rounded=0;orthogonalLoop=1;jettySize=auto;html=1;" parent="isTigd_J0Dsz2-tIGpBy-67" source="isTigd_J0Dsz2-tIGpBy-93" target="isTigd_J0Dsz2-tIGpBy-96" edge="1">
          <mxGeometry relative="1" as="geometry" />
        </mxCell>
        <mxCell id="isTigd_J0Dsz2-tIGpBy-93" value="Duyệt danh sách tài khoản khách hàng" style="rounded=1;whiteSpace=wrap;html=1;arcSize=40;fontColor=#000000;fillColor=#ffffc0;strokeColor=#ff0000;" parent="isTigd_J0Dsz2-tIGpBy-67" vertex="1">
          <mxGeometry x="489.99999999999955" y="360" width="120" height="40" as="geometry" />
        </mxCell>
        <mxCell id="isTigd_J0Dsz2-tIGpBy-107" value="" style="edgeStyle=orthogonalEdgeStyle;rounded=0;orthogonalLoop=1;jettySize=auto;html=1;" parent="isTigd_J0Dsz2-tIGpBy-67" source="isTigd_J0Dsz2-tIGpBy-96" target="isTigd_J0Dsz2-tIGpBy-104" edge="1">
          <mxGeometry relative="1" as="geometry" />
        </mxCell>
        <mxCell id="isTigd_J0Dsz2-tIGpBy-96" value="Chọn tài khoản để xem chi tiết giỏ hàng" style="whiteSpace=wrap;html=1;fillColor=#ffffc0;strokeColor=#ff0000;fontColor=#000000;rounded=1;arcSize=40;" parent="isTigd_J0Dsz2-tIGpBy-67" vertex="1">
          <mxGeometry x="489.99999999999955" y="470" width="120" height="60" as="geometry" />
        </mxCell>
        <mxCell id="isTigd_J0Dsz2-tIGpBy-104" value="" style="rhombus;whiteSpace=wrap;html=1;fontColor=#000000;fillColor=#ffffc0;strokeColor=#ff0000;" parent="isTigd_J0Dsz2-tIGpBy-67" vertex="1">
          <mxGeometry x="509.99999999999955" y="570" width="80" height="40" as="geometry" />
        </mxCell>
        <mxCell id="isTigd_J0Dsz2-tIGpBy-106" value="[Else]" style="edgeStyle=orthogonalEdgeStyle;html=1;align=left;verticalAlign=top;endArrow=open;endSize=8;strokeColor=#ff0000;rounded=0;entryX=0;entryY=0.5;entryDx=0;entryDy=0;" parent="isTigd_J0Dsz2-tIGpBy-67" source="isTigd_J0Dsz2-tIGpBy-104" target="isTigd_J0Dsz2-tIGpBy-109" edge="1">
          <mxGeometry x="-1" relative="1" as="geometry">
            <mxPoint x="554.9999999999995" y="660" as="targetPoint" />
          </mxGeometry>
        </mxCell>
        <mxCell id="isTigd_J0Dsz2-tIGpBy-110" style="edgeStyle=orthogonalEdgeStyle;rounded=0;orthogonalLoop=1;jettySize=auto;html=1;exitX=0.5;exitY=1;exitDx=0;exitDy=0;entryX=1;entryY=0.5;entryDx=0;entryDy=0;" parent="isTigd_J0Dsz2-tIGpBy-67" source="isTigd_J0Dsz2-tIGpBy-108" target="isTigd_J0Dsz2-tIGpBy-109" edge="1">
          <mxGeometry relative="1" as="geometry" />
        </mxCell>
        <mxCell id="isTigd_J0Dsz2-tIGpBy-108" value="Kích hoạt/ vô hiệu hóa giỏ hàng" style="rounded=1;whiteSpace=wrap;html=1;arcSize=40;fontColor=#000000;fillColor=#ffffc0;strokeColor=#ff0000;" parent="isTigd_J0Dsz2-tIGpBy-67" vertex="1">
          <mxGeometry x="709.9999999999995" y="570" width="120" height="40" as="geometry" />
        </mxCell>
        <mxCell id="isTigd_J0Dsz2-tIGpBy-105" value="[Kích hoạt/ vô hiểu hóa]" style="edgeStyle=orthogonalEdgeStyle;html=1;align=left;verticalAlign=bottom;endArrow=open;endSize=8;strokeColor=#ff0000;rounded=0;" parent="isTigd_J0Dsz2-tIGpBy-67" source="isTigd_J0Dsz2-tIGpBy-104" target="isTigd_J0Dsz2-tIGpBy-108" edge="1">
          <mxGeometry x="-1" relative="1" as="geometry">
            <mxPoint x="739.9999999999995" y="590" as="targetPoint" />
          </mxGeometry>
        </mxCell>
        <mxCell id="isTigd_J0Dsz2-tIGpBy-112" value="" style="edgeStyle=orthogonalEdgeStyle;rounded=0;orthogonalLoop=1;jettySize=auto;html=1;" parent="isTigd_J0Dsz2-tIGpBy-67" source="isTigd_J0Dsz2-tIGpBy-109" target="isTigd_J0Dsz2-tIGpBy-111" edge="1">
          <mxGeometry relative="1" as="geometry" />
        </mxCell>
        <mxCell id="isTigd_J0Dsz2-tIGpBy-109" value="" style="rhombus;whiteSpace=wrap;html=1;fontColor=#000000;fillColor=#ffffc0;strokeColor=#ff0000;" parent="isTigd_J0Dsz2-tIGpBy-67" vertex="1">
          <mxGeometry x="589.9999999999995" y="660" width="80" height="40" as="geometry" />
        </mxCell>
        <mxCell id="isTigd_J0Dsz2-tIGpBy-111" value="" style="ellipse;html=1;shape=endState;fillColor=#000000;strokeColor=#ff0000;" parent="isTigd_J0Dsz2-tIGpBy-67" vertex="1">
          <mxGeometry x="614.9999999999995" y="730" width="30" height="30" as="geometry" />
        </mxCell>
        <mxCell id="uV3kU8W3gXamrPDPcUg_-8" value="" style="edgeStyle=orthogonalEdgeStyle;rounded=0;orthogonalLoop=1;jettySize=auto;html=1;" edge="1" parent="isTigd_J0Dsz2-tIGpBy-67" source="uV3kU8W3gXamrPDPcUg_-5" target="uV3kU8W3gXamrPDPcUg_-7">
          <mxGeometry relative="1" as="geometry" />
        </mxCell>
        <mxCell id="uV3kU8W3gXamrPDPcUg_-5" value="Quản lý kho hàng" style="rounded=1;whiteSpace=wrap;html=1;arcSize=40;fontColor=#000000;fillColor=#ffffc0;strokeColor=#ff0000;" vertex="1" parent="isTigd_J0Dsz2-tIGpBy-67">
          <mxGeometry x="209.99999999999955" y="370" width="120" height="40" as="geometry" />
        </mxCell>
        <mxCell id="uV3kU8W3gXamrPDPcUg_-7" value="" style="ellipse;html=1;shape=endState;fillColor=#000000;strokeColor=#ff0000;" vertex="1" parent="isTigd_J0Dsz2-tIGpBy-67">
          <mxGeometry x="254.99999999999955" y="460" width="30" height="30" as="geometry" />
        </mxCell>
        <mxCell id="isTigd_J0Dsz2-tIGpBy-1" value="" style="swimlane;html=1;childLayout=stackLayout;resizeParent=1;resizeParentMax=0;startSize=20;whiteSpace=wrap;" parent="1" vertex="1">
          <mxGeometry x="180" y="200" width="840" height="880" as="geometry" />
        </mxCell>
        <mxCell id="isTigd_J0Dsz2-tIGpBy-2" value="Khách hàng" style="swimlane;html=1;startSize=20;" parent="isTigd_J0Dsz2-tIGpBy-1" vertex="1">
          <mxGeometry y="20" width="840" height="860" as="geometry" />
        </mxCell>
        <mxCell id="isTigd_J0Dsz2-tIGpBy-10" value="" style="ellipse;html=1;shape=startState;fillColor=#000000;strokeColor=#ff0000;" parent="isTigd_J0Dsz2-tIGpBy-2" vertex="1">
          <mxGeometry x="305" y="20" width="30" height="30" as="geometry" />
        </mxCell>
        <mxCell id="isTigd_J0Dsz2-tIGpBy-14" value="" style="edgeStyle=orthogonalEdgeStyle;rounded=0;orthogonalLoop=1;jettySize=auto;html=1;" parent="isTigd_J0Dsz2-tIGpBy-2" source="isTigd_J0Dsz2-tIGpBy-12" target="isTigd_J0Dsz2-tIGpBy-13" edge="1">
          <mxGeometry relative="1" as="geometry" />
        </mxCell>
        <mxCell id="isTigd_J0Dsz2-tIGpBy-12" value="Đăng nhập" style="rounded=1;whiteSpace=wrap;html=1;arcSize=40;fontColor=#000000;fillColor=#ffffc0;strokeColor=#ff0000;" parent="isTigd_J0Dsz2-tIGpBy-2" vertex="1">
          <mxGeometry x="260" y="70" width="120" height="40" as="geometry" />
        </mxCell>
        <mxCell id="isTigd_J0Dsz2-tIGpBy-11" value="" style="edgeStyle=orthogonalEdgeStyle;html=1;verticalAlign=bottom;endArrow=open;endSize=8;strokeColor=#ff0000;rounded=0;" parent="isTigd_J0Dsz2-tIGpBy-2" source="isTigd_J0Dsz2-tIGpBy-10" target="isTigd_J0Dsz2-tIGpBy-12" edge="1">
          <mxGeometry relative="1" as="geometry">
            <mxPoint x="295" y="100" as="targetPoint" />
          </mxGeometry>
        </mxCell>
        <mxCell id="isTigd_J0Dsz2-tIGpBy-13" value="Chuyển đến trang bắt đầu" style="whiteSpace=wrap;html=1;fillColor=#ffffc0;strokeColor=#ff0000;fontColor=#000000;rounded=1;arcSize=40;" parent="isTigd_J0Dsz2-tIGpBy-2" vertex="1">
          <mxGeometry x="260" y="130" width="120" height="60" as="geometry" />
        </mxCell>
        <mxCell id="isTigd_J0Dsz2-tIGpBy-43" style="edgeStyle=orthogonalEdgeStyle;rounded=0;orthogonalLoop=1;jettySize=auto;html=1;" parent="isTigd_J0Dsz2-tIGpBy-2" source="isTigd_J0Dsz2-tIGpBy-15" target="isTigd_J0Dsz2-tIGpBy-41" edge="1">
          <mxGeometry relative="1" as="geometry">
            <Array as="points">
              <mxPoint x="410" y="380" />
            </Array>
          </mxGeometry>
        </mxCell>
        <mxCell id="isTigd_J0Dsz2-tIGpBy-63" style="edgeStyle=orthogonalEdgeStyle;rounded=0;orthogonalLoop=1;jettySize=auto;html=1;exitX=0.224;exitY=0.645;exitDx=0;exitDy=0;exitPerimeter=0;" parent="isTigd_J0Dsz2-tIGpBy-2" source="isTigd_J0Dsz2-tIGpBy-15" target="y0KqIJ-ZdXMwktxbTLIe-1" edge="1">
          <mxGeometry relative="1" as="geometry">
            <Array as="points">
              <mxPoint x="375" y="310" />
              <mxPoint x="110" y="310" />
            </Array>
          </mxGeometry>
        </mxCell>
        <mxCell id="isTigd_J0Dsz2-tIGpBy-15" value="" style="shape=line;html=1;strokeWidth=6;strokeColor=#ff0000;" parent="isTigd_J0Dsz2-tIGpBy-2" vertex="1">
          <mxGeometry x="330" y="280" width="200" height="10" as="geometry" />
        </mxCell>
        <mxCell id="isTigd_J0Dsz2-tIGpBy-17" style="edgeStyle=orthogonalEdgeStyle;rounded=0;orthogonalLoop=1;jettySize=auto;html=1;exitX=0.5;exitY=1;exitDx=0;exitDy=0;entryX=0.613;entryY=0.267;entryDx=0;entryDy=0;entryPerimeter=0;" parent="isTigd_J0Dsz2-tIGpBy-2" source="isTigd_J0Dsz2-tIGpBy-13" target="isTigd_J0Dsz2-tIGpBy-15" edge="1">
          <mxGeometry relative="1" as="geometry">
            <mxPoint x="410" y="240" as="targetPoint" />
          </mxGeometry>
        </mxCell>
        <mxCell id="isTigd_J0Dsz2-tIGpBy-30" value="" style="edgeStyle=orthogonalEdgeStyle;rounded=0;orthogonalLoop=1;jettySize=auto;html=1;" parent="isTigd_J0Dsz2-tIGpBy-2" source="isTigd_J0Dsz2-tIGpBy-22" target="isTigd_J0Dsz2-tIGpBy-24" edge="1">
          <mxGeometry relative="1" as="geometry" />
        </mxCell>
        <mxCell id="isTigd_J0Dsz2-tIGpBy-22" value="Chọn sản phẩm để xem chi tiết" style="whiteSpace=wrap;html=1;fillColor=#ffffc0;strokeColor=#ff0000;fontColor=#000000;rounded=1;arcSize=40;" parent="isTigd_J0Dsz2-tIGpBy-2" vertex="1">
          <mxGeometry x="470" y="510" width="120" height="60" as="geometry" />
        </mxCell>
        <mxCell id="isTigd_J0Dsz2-tIGpBy-24" value="" style="rhombus;whiteSpace=wrap;html=1;fontColor=#000000;fillColor=#ffffc0;strokeColor=#ff0000;" parent="isTigd_J0Dsz2-tIGpBy-2" vertex="1">
          <mxGeometry x="490" y="630" width="80" height="40" as="geometry" />
        </mxCell>
        <mxCell id="isTigd_J0Dsz2-tIGpBy-25" value="[Mua sản phẩm]" style="edgeStyle=orthogonalEdgeStyle;html=1;align=left;verticalAlign=bottom;endArrow=open;endSize=8;strokeColor=#ff0000;rounded=0;" parent="isTigd_J0Dsz2-tIGpBy-2" source="isTigd_J0Dsz2-tIGpBy-24" target="isTigd_J0Dsz2-tIGpBy-38" edge="1">
          <mxGeometry x="-1" relative="1" as="geometry">
            <mxPoint x="670" y="590" as="targetPoint" />
          </mxGeometry>
        </mxCell>
        <mxCell id="isTigd_J0Dsz2-tIGpBy-31" value="" style="rhombus;whiteSpace=wrap;html=1;fontColor=#000000;fillColor=#ffffc0;strokeColor=#ff0000;" parent="isTigd_J0Dsz2-tIGpBy-2" vertex="1">
          <mxGeometry x="490" y="410" width="80" height="40" as="geometry" />
        </mxCell>
        <mxCell id="uV3kU8W3gXamrPDPcUg_-1" style="edgeStyle=orthogonalEdgeStyle;rounded=0;orthogonalLoop=1;jettySize=auto;html=1;exitX=0.5;exitY=1;exitDx=0;exitDy=0;" edge="1" parent="isTigd_J0Dsz2-tIGpBy-2" source="isTigd_J0Dsz2-tIGpBy-35" target="uV3kU8W3gXamrPDPcUg_-3">
          <mxGeometry relative="1" as="geometry" />
        </mxCell>
        <mxCell id="isTigd_J0Dsz2-tIGpBy-35" value="Cập nhật lại giỏ hảng" style="rounded=1;whiteSpace=wrap;html=1;arcSize=40;fontColor=#000000;fillColor=#ffffc0;strokeColor=#ff0000;" parent="isTigd_J0Dsz2-tIGpBy-2" vertex="1">
          <mxGeometry x="700" y="690" width="120" height="40" as="geometry" />
        </mxCell>
        <mxCell id="isTigd_J0Dsz2-tIGpBy-33" value="[Chọn sản phẩm để mua]" style="edgeStyle=orthogonalEdgeStyle;html=1;align=left;verticalAlign=top;endArrow=open;endSize=8;strokeColor=#ff0000;rounded=0;entryX=0.5;entryY=0;entryDx=0;entryDy=0;" parent="isTigd_J0Dsz2-tIGpBy-2" source="isTigd_J0Dsz2-tIGpBy-31" target="isTigd_J0Dsz2-tIGpBy-38" edge="1">
          <mxGeometry x="-0.3731" relative="1" as="geometry">
            <mxPoint x="750" y="460" as="targetPoint" />
            <mxPoint as="offset" />
          </mxGeometry>
        </mxCell>
        <mxCell id="isTigd_J0Dsz2-tIGpBy-32" value="[Xem chi tiet san pham]" style="edgeStyle=orthogonalEdgeStyle;html=1;align=left;verticalAlign=bottom;endArrow=open;endSize=8;strokeColor=#ff0000;rounded=0;" parent="isTigd_J0Dsz2-tIGpBy-2" source="isTigd_J0Dsz2-tIGpBy-31" target="isTigd_J0Dsz2-tIGpBy-22" edge="1">
          <mxGeometry x="-0.3333" y="10" relative="1" as="geometry">
            <mxPoint x="620" y="360" as="targetPoint" />
            <mxPoint as="offset" />
          </mxGeometry>
        </mxCell>
        <mxCell id="isTigd_J0Dsz2-tIGpBy-39" value="" style="edgeStyle=orthogonalEdgeStyle;rounded=0;orthogonalLoop=1;jettySize=auto;html=1;" parent="isTigd_J0Dsz2-tIGpBy-2" source="isTigd_J0Dsz2-tIGpBy-38" target="isTigd_J0Dsz2-tIGpBy-35" edge="1">
          <mxGeometry relative="1" as="geometry" />
        </mxCell>
        <mxCell id="isTigd_J0Dsz2-tIGpBy-38" value="" style="rhombus;whiteSpace=wrap;html=1;fontColor=#000000;fillColor=#ffffc0;strokeColor=#ff0000;" parent="isTigd_J0Dsz2-tIGpBy-2" vertex="1">
          <mxGeometry x="720" y="590" width="80" height="40" as="geometry" />
        </mxCell>
        <mxCell id="isTigd_J0Dsz2-tIGpBy-34" value="" style="edgeStyle=orthogonalEdgeStyle;rounded=0;orthogonalLoop=1;jettySize=auto;html=1;" parent="isTigd_J0Dsz2-tIGpBy-2" source="isTigd_J0Dsz2-tIGpBy-18" target="isTigd_J0Dsz2-tIGpBy-31" edge="1">
          <mxGeometry relative="1" as="geometry" />
        </mxCell>
        <mxCell id="isTigd_J0Dsz2-tIGpBy-18" value="Duyệt danh sách sản phẩm" style="rounded=1;whiteSpace=wrap;html=1;arcSize=40;fontColor=#000000;fillColor=#ffffc0;strokeColor=#ff0000;" parent="isTigd_J0Dsz2-tIGpBy-2" vertex="1">
          <mxGeometry x="470" y="340" width="120" height="40" as="geometry" />
        </mxCell>
        <mxCell id="isTigd_J0Dsz2-tIGpBy-21" style="edgeStyle=orthogonalEdgeStyle;rounded=0;orthogonalLoop=1;jettySize=auto;html=1;exitX=0.75;exitY=0.5;exitDx=0;exitDy=0;exitPerimeter=0;" parent="isTigd_J0Dsz2-tIGpBy-2" source="isTigd_J0Dsz2-tIGpBy-15" target="isTigd_J0Dsz2-tIGpBy-18" edge="1">
          <mxGeometry relative="1" as="geometry" />
        </mxCell>
        <mxCell id="isTigd_J0Dsz2-tIGpBy-40" value="" style="ellipse;html=1;shape=endState;fillColor=#000000;strokeColor=#ff0000;" parent="isTigd_J0Dsz2-tIGpBy-2" vertex="1">
          <mxGeometry x="515" y="820" width="30" height="30" as="geometry" />
        </mxCell>
        <mxCell id="isTigd_J0Dsz2-tIGpBy-26" value="" style="edgeStyle=orthogonalEdgeStyle;html=1;align=left;verticalAlign=top;endArrow=open;endSize=8;strokeColor=#ff0000;rounded=0;" parent="isTigd_J0Dsz2-tIGpBy-2" source="isTigd_J0Dsz2-tIGpBy-24" target="uV3kU8W3gXamrPDPcUg_-3" edge="1">
          <mxGeometry x="0.692" y="60" relative="1" as="geometry">
            <mxPoint x="530" y="740" as="targetPoint" />
            <mxPoint as="offset" />
          </mxGeometry>
        </mxCell>
        <mxCell id="uV3kU8W3gXamrPDPcUg_-2" value="[else]" style="edgeLabel;html=1;align=center;verticalAlign=middle;resizable=0;points=[];" vertex="1" connectable="0" parent="isTigd_J0Dsz2-tIGpBy-26">
          <mxGeometry x="-0.6" y="-2" relative="1" as="geometry">
            <mxPoint as="offset" />
          </mxGeometry>
        </mxCell>
        <mxCell id="isTigd_J0Dsz2-tIGpBy-55" value="" style="edgeStyle=orthogonalEdgeStyle;rounded=0;orthogonalLoop=1;jettySize=auto;html=1;" parent="isTigd_J0Dsz2-tIGpBy-2" source="isTigd_J0Dsz2-tIGpBy-41" target="isTigd_J0Dsz2-tIGpBy-48" edge="1">
          <mxGeometry relative="1" as="geometry" />
        </mxCell>
        <mxCell id="isTigd_J0Dsz2-tIGpBy-41" value="Xem giỏ hàng" style="rounded=1;whiteSpace=wrap;html=1;arcSize=40;fontColor=#000000;fillColor=#ffffc0;strokeColor=#ff0000;" parent="isTigd_J0Dsz2-tIGpBy-2" vertex="1">
          <mxGeometry x="200" y="360" width="120" height="40" as="geometry" />
        </mxCell>
        <mxCell id="isTigd_J0Dsz2-tIGpBy-44" value="" style="ellipse;html=1;shape=endState;fillColor=#000000;strokeColor=#ff0000;" parent="isTigd_J0Dsz2-tIGpBy-2" vertex="1">
          <mxGeometry x="305" y="695" width="30" height="30" as="geometry" />
        </mxCell>
        <mxCell id="isTigd_J0Dsz2-tIGpBy-48" value="" style="rhombus;whiteSpace=wrap;html=1;fontColor=#000000;fillColor=#ffffc0;strokeColor=#ff0000;" parent="isTigd_J0Dsz2-tIGpBy-2" vertex="1">
          <mxGeometry x="220" y="440" width="80" height="40" as="geometry" />
        </mxCell>
        <mxCell id="isTigd_J0Dsz2-tIGpBy-58" style="edgeStyle=orthogonalEdgeStyle;rounded=0;orthogonalLoop=1;jettySize=auto;html=1;entryX=0;entryY=0.5;entryDx=0;entryDy=0;" parent="isTigd_J0Dsz2-tIGpBy-2" source="isTigd_J0Dsz2-tIGpBy-54" target="isTigd_J0Dsz2-tIGpBy-57" edge="1">
          <mxGeometry relative="1" as="geometry" />
        </mxCell>
        <mxCell id="isTigd_J0Dsz2-tIGpBy-54" value="Thực hiện quy trình thanh toán" style="rounded=1;whiteSpace=wrap;html=1;arcSize=40;fontColor=#000000;fillColor=#ffffc0;strokeColor=#ff0000;" parent="isTigd_J0Dsz2-tIGpBy-2" vertex="1">
          <mxGeometry x="200" y="530" width="120" height="40" as="geometry" />
        </mxCell>
        <mxCell id="isTigd_J0Dsz2-tIGpBy-50" value="[Thanh toán]" style="edgeStyle=orthogonalEdgeStyle;html=1;align=left;verticalAlign=top;endArrow=open;endSize=8;strokeColor=#ff0000;rounded=0;" parent="isTigd_J0Dsz2-tIGpBy-2" source="isTigd_J0Dsz2-tIGpBy-48" target="isTigd_J0Dsz2-tIGpBy-54" edge="1">
          <mxGeometry x="-1" relative="1" as="geometry">
            <mxPoint x="260" y="540" as="targetPoint" />
          </mxGeometry>
        </mxCell>
        <mxCell id="isTigd_J0Dsz2-tIGpBy-59" style="edgeStyle=orthogonalEdgeStyle;rounded=0;orthogonalLoop=1;jettySize=auto;html=1;exitX=0.5;exitY=1;exitDx=0;exitDy=0;entryX=1;entryY=0.5;entryDx=0;entryDy=0;" parent="isTigd_J0Dsz2-tIGpBy-2" source="isTigd_J0Dsz2-tIGpBy-56" target="isTigd_J0Dsz2-tIGpBy-57" edge="1">
          <mxGeometry relative="1" as="geometry" />
        </mxCell>
        <mxCell id="isTigd_J0Dsz2-tIGpBy-56" value="Cập nhật lại giỏ hàng" style="rounded=1;whiteSpace=wrap;html=1;arcSize=40;fontColor=#000000;fillColor=#ffffc0;strokeColor=#ff0000;" parent="isTigd_J0Dsz2-tIGpBy-2" vertex="1">
          <mxGeometry x="340" y="560" width="120" height="40" as="geometry" />
        </mxCell>
        <mxCell id="isTigd_J0Dsz2-tIGpBy-49" value="[Xóa sản phẩm]" style="edgeStyle=orthogonalEdgeStyle;html=1;align=left;verticalAlign=bottom;endArrow=open;endSize=8;strokeColor=#ff0000;rounded=0;" parent="isTigd_J0Dsz2-tIGpBy-2" source="isTigd_J0Dsz2-tIGpBy-48" target="isTigd_J0Dsz2-tIGpBy-56" edge="1">
          <mxGeometry x="-1" relative="1" as="geometry">
            <mxPoint x="400" y="460" as="targetPoint" />
          </mxGeometry>
        </mxCell>
        <mxCell id="isTigd_J0Dsz2-tIGpBy-60" style="edgeStyle=orthogonalEdgeStyle;rounded=0;orthogonalLoop=1;jettySize=auto;html=1;exitX=0.5;exitY=1;exitDx=0;exitDy=0;" parent="isTigd_J0Dsz2-tIGpBy-2" source="isTigd_J0Dsz2-tIGpBy-57" target="isTigd_J0Dsz2-tIGpBy-44" edge="1">
          <mxGeometry relative="1" as="geometry" />
        </mxCell>
        <mxCell id="isTigd_J0Dsz2-tIGpBy-57" value="" style="rhombus;whiteSpace=wrap;html=1;fontColor=#000000;fillColor=#ffffc0;strokeColor=#ff0000;" parent="isTigd_J0Dsz2-tIGpBy-2" vertex="1">
          <mxGeometry x="280" y="620" width="80" height="40" as="geometry" />
        </mxCell>
        <mxCell id="isTigd_J0Dsz2-tIGpBy-65" value="" style="edgeStyle=orthogonalEdgeStyle;rounded=0;orthogonalLoop=1;jettySize=auto;html=1;" parent="isTigd_J0Dsz2-tIGpBy-2" source="isTigd_J0Dsz2-tIGpBy-61" target="isTigd_J0Dsz2-tIGpBy-64" edge="1">
          <mxGeometry relative="1" as="geometry" />
        </mxCell>
        <mxCell id="isTigd_J0Dsz2-tIGpBy-61" value="Đánh giá sản phẩm" style="rounded=1;whiteSpace=wrap;html=1;arcSize=40;fontColor=#000000;fillColor=#ffffc0;strokeColor=#ff0000;" parent="isTigd_J0Dsz2-tIGpBy-2" vertex="1">
          <mxGeometry x="50" y="450" width="120" height="40" as="geometry" />
        </mxCell>
        <mxCell id="isTigd_J0Dsz2-tIGpBy-64" value="" style="ellipse;html=1;shape=endState;fillColor=#000000;strokeColor=#ff0000;" parent="isTigd_J0Dsz2-tIGpBy-2" vertex="1">
          <mxGeometry x="95" y="590" width="30" height="30" as="geometry" />
        </mxCell>
        <mxCell id="y0KqIJ-ZdXMwktxbTLIe-2" value="" style="edgeStyle=orthogonalEdgeStyle;rounded=0;orthogonalLoop=1;jettySize=auto;html=1;" parent="isTigd_J0Dsz2-tIGpBy-2" source="y0KqIJ-ZdXMwktxbTLIe-1" target="isTigd_J0Dsz2-tIGpBy-61" edge="1">
          <mxGeometry relative="1" as="geometry" />
        </mxCell>
        <mxCell id="y0KqIJ-ZdXMwktxbTLIe-1" value="Duyệt danh sách sản phẩm" style="rounded=1;whiteSpace=wrap;html=1;arcSize=40;fontColor=#000000;fillColor=#ffffc0;strokeColor=#ff0000;" parent="isTigd_J0Dsz2-tIGpBy-2" vertex="1">
          <mxGeometry x="50" y="360" width="120" height="40" as="geometry" />
        </mxCell>
        <mxCell id="uV3kU8W3gXamrPDPcUg_-4" value="" style="edgeStyle=orthogonalEdgeStyle;rounded=0;orthogonalLoop=1;jettySize=auto;html=1;" edge="1" parent="isTigd_J0Dsz2-tIGpBy-2" source="uV3kU8W3gXamrPDPcUg_-3" target="isTigd_J0Dsz2-tIGpBy-40">
          <mxGeometry relative="1" as="geometry" />
        </mxCell>
        <mxCell id="uV3kU8W3gXamrPDPcUg_-3" value="" style="rhombus;whiteSpace=wrap;html=1;fontColor=#000000;fillColor=#ffffc0;strokeColor=#ff0000;" vertex="1" parent="isTigd_J0Dsz2-tIGpBy-2">
          <mxGeometry x="490" y="725" width="80" height="40" as="geometry" />
        </mxCell>
      </root>
    </mxGraphModel>
  </diagram>
</mxfile>
